<svg xmlns="http://www.w3.org/2000/svg" xmlns:xlink="http://www.w3.org/1999/xlink" width="2000" zoomAndPan="magnify" viewBox="0 0 1500 1499.999933" height="2000" preserveAspectRatio="xMidYMid meet" version="1.2"><defs/><g id="cb6c206210"><g style="fill:#000000;fill-opacity:1;"><g transform="translate(0.00003335, 910.47723)"><path style="stroke:none" d="M 55.578125 -37.15625 C 27.492188 -67.78125 13.453125 -105.328125 13.453125 -149.796875 C 13.453125 -194.265625 27.492188 -231.90625 55.578125 -262.71875 C 83.671875 -293.539062 119.367188 -308.953125 162.671875 -308.953125 C 202.453125 -308.953125 235.21875 -296.46875 260.96875 -271.5 L 260.96875 -503.203125 L 364.53125 -503.203125 L 364.53125 0 L 262.140625 0 L 262.140625 -33.9375 L 260.96875 -33.9375 C 235.21875 -5.457031 202.453125 8.78125 162.671875 8.78125 C 119.367188 8.78125 83.671875 -6.53125 55.578125 -37.15625 Z M 143.640625 -200.6875 C 130.191406 -187.425781 123.46875 -170.457031 123.46875 -149.78125 C 123.46875 -129.113281 129.898438 -112.242188 142.765625 -99.171875 C 155.640625 -86.109375 172.609375 -79.578125 193.671875 -79.578125 C 213.960938 -79.578125 230.640625 -86.207031 243.703125 -99.46875 C 256.773438 -112.726562 263.3125 -129.503906 263.3125 -149.796875 C 263.3125 -170.460938 256.582031 -187.425781 243.125 -200.6875 C 229.664062 -213.957031 213.179688 -220.59375 193.671875 -220.59375 C 173.773438 -220.59375 157.097656 -213.957031 143.640625 -200.6875 Z M 143.640625 -200.6875 "/></g></g><g style="fill:#000000;fill-opacity:1;"><g transform="translate(393.783978, 910.47723)"><path style="stroke:none" d="M 55.578125 -37.15625 C 27.492188 -67.78125 13.453125 -105.328125 13.453125 -149.796875 C 13.453125 -194.265625 27.492188 -231.90625 55.578125 -262.71875 C 83.671875 -293.539062 119.367188 -308.953125 162.671875 -308.953125 C 202.453125 -308.953125 235.21875 -296.46875 260.96875 -271.5 L 260.96875 -300.171875 L 364.53125 -300.171875 L 364.53125 0 L 262.140625 0 L 262.140625 -33.9375 L 260.96875 -33.9375 C 235.21875 -5.457031 202.453125 8.78125 162.671875 8.78125 C 119.367188 8.78125 83.671875 -6.53125 55.578125 -37.15625 Z M 143.640625 -200.6875 C 130.191406 -187.425781 123.46875 -170.457031 123.46875 -149.78125 C 123.46875 -129.113281 129.898438 -112.242188 142.765625 -99.171875 C 155.640625 -86.109375 172.609375 -79.578125 193.671875 -79.578125 C 213.960938 -79.578125 230.640625 -86.207031 243.703125 -99.46875 C 256.773438 -112.726562 263.3125 -129.503906 263.3125 -149.796875 C 263.3125 -170.460938 256.582031 -187.425781 243.125 -200.6875 C 229.664062 -213.957031 213.179688 -220.59375 193.671875 -220.59375 C 173.773438 -220.59375 157.097656 -213.957031 143.640625 -200.6875 Z M 143.640625 -200.6875 "/></g></g><g style="fill:#000000;fill-opacity:1;"><g transform="translate(785.227474, 910.47723)"><path style="stroke:none" d="M 165.59375 -308.953125 C 182.75 -308.953125 199.710938 -307 216.484375 -303.09375 C 233.265625 -299.195312 245.75 -295.296875 253.9375 -291.390625 L 266.234375 -285.546875 L 232.296875 -217.671875 C 208.890625 -230.148438 186.65625 -236.390625 165.59375 -236.390625 C 153.882812 -236.390625 145.59375 -235.117188 140.71875 -232.578125 C 135.84375 -230.046875 133.40625 -225.269531 133.40625 -218.25 C 133.40625 -216.6875 133.597656 -215.125 133.984375 -213.5625 C 134.378906 -212.007812 135.160156 -210.550781 136.328125 -209.1875 C 137.503906 -207.820312 138.578125 -206.648438 139.546875 -205.671875 C 140.523438 -204.691406 142.179688 -203.617188 144.515625 -202.453125 C 146.859375 -201.285156 148.710938 -200.40625 150.078125 -199.8125 C 151.441406 -199.226562 153.6875 -198.351562 156.8125 -197.1875 C 159.9375 -196.019531 162.273438 -195.140625 163.828125 -194.546875 C 165.390625 -193.960938 168.023438 -193.085938 171.734375 -191.921875 C 175.441406 -190.753906 178.269531 -189.972656 180.21875 -189.578125 C 192.3125 -186.066406 202.84375 -182.164062 211.8125 -177.875 C 220.78125 -173.582031 230.238281 -167.726562 240.1875 -160.3125 C 250.132812 -152.90625 257.835938 -143.546875 263.296875 -132.234375 C 268.765625 -120.921875 271.5 -108.050781 271.5 -93.625 C 271.5 -25.351562 224.101562 8.78125 129.3125 8.78125 C 107.851562 8.78125 87.46875 5.460938 68.15625 -1.171875 C 48.851562 -7.804688 34.910156 -14.4375 26.328125 -21.0625 L 13.453125 -31.59375 L 55.59375 -102.390625 C 58.707031 -99.660156 62.800781 -96.441406 67.875 -92.734375 C 72.945312 -89.035156 82.113281 -83.96875 95.375 -77.53125 C 108.632812 -71.09375 120.140625 -67.875 129.890625 -67.875 C 151.347656 -67.875 162.078125 -75.09375 162.078125 -89.53125 C 162.078125 -96.15625 159.347656 -101.320312 153.890625 -105.03125 C 148.429688 -108.738281 139.164062 -112.929688 126.09375 -117.609375 C 113.03125 -122.285156 102.789062 -126.578125 95.375 -130.484375 C 76.65625 -140.234375 61.832031 -151.25 50.90625 -163.53125 C 39.976562 -175.820312 34.515625 -192.113281 34.515625 -212.40625 C 34.515625 -242.832031 46.316406 -266.53125 69.921875 -283.5 C 93.523438 -300.46875 125.414062 -308.953125 165.59375 -308.953125 Z M 165.59375 -308.953125 "/></g></g><g style="fill:#000000;fill-opacity:1;"><g transform="translate(1067.253943, 910.47723)"><path style="stroke:none" d="M 172.03125 -128.140625 L 138.671875 0 L 66.125 0 L 99.46875 -128.140625 L 39.78125 -128.140625 L 58.515625 -198.9375 L 118.1875 -198.9375 L 140.4375 -284.375 L 77.828125 -284.375 L 96.546875 -355.171875 L 159.15625 -355.171875 L 192.5 -482.734375 L 265.0625 -482.734375 L 231.703125 -355.171875 L 294.90625 -355.171875 L 328.25 -482.734375 L 400.8125 -482.734375 L 367.453125 -355.171875 L 427.140625 -355.171875 L 408.421875 -284.375 L 348.734375 -284.375 L 326.5 -198.9375 L 389.109375 -198.9375 L 370.390625 -128.140625 L 307.78125 -128.140625 L 274.421875 0 L 201.875 0 L 235.21875 -128.140625 Z M 253.9375 -198.9375 L 276.171875 -284.375 L 212.984375 -284.375 L 190.75 -198.9375 Z M 253.9375 -198.9375 "/></g></g><g style="fill:#000000;fill-opacity:1;"><g transform="translate(271.392579, 1095.368862)"><path style="stroke:none" d="M 17.09375 -97.46875 L 17.09375 -118.1875 C 17.226562 -132.75 20.648438 -144.398438 27.359375 -153.140625 C 34.078125 -161.878906 43.390625 -166.25 55.296875 -166.25 C 60.359375 -166.25 65.203125 -165.519531 69.828125 -164.0625 C 74.453125 -162.601562 77.773438 -161.113281 79.796875 -159.59375 L 83.03125 -157.515625 L 71.25 -133.765625 C 68.207031 -135.535156 64.851562 -136.421875 61.1875 -136.421875 C 57 -136.421875 54.207031 -134.992188 52.8125 -132.140625 C 51.425781 -129.296875 50.734375 -124.328125 50.734375 -117.234375 L 50.734375 -97.46875 L 73.15625 -97.46875 L 73.15625 -71.8125 L 50.734375 -71.8125 L 50.734375 0 L 17.09375 0 L 17.09375 -71.8125 L 3.046875 -71.8125 L 3.046875 -97.46875 Z M 17.09375 -97.46875 "/></g></g><g style="fill:#000000;fill-opacity:1;"><g transform="translate(352.141077, 1095.368862)"><path style="stroke:none" d="M 43.125 -97.46875 L 43.125 -51.109375 C 43.125 -41.484375 44.582031 -34.644531 47.5 -30.59375 C 50.414062 -26.539062 55.351562 -24.515625 62.3125 -24.515625 C 69.28125 -24.515625 74.222656 -26.539062 77.140625 -30.59375 C 80.054688 -34.644531 81.515625 -41.484375 81.515625 -51.109375 L 81.515625 -97.46875 L 115.140625 -97.46875 L 115.140625 -42.9375 C 115.140625 -26.726562 110.925781 -15.046875 102.5 -7.890625 C 94.082031 -0.734375 80.6875 2.84375 62.3125 2.84375 C 43.945312 2.84375 30.550781 -0.734375 22.125 -7.890625 C 13.707031 -15.046875 9.5 -26.726562 9.5 -42.9375 L 9.5 -97.46875 Z M 43.125 -97.46875 "/></g></g><g style="fill:#000000;fill-opacity:1;"><g transform="translate(486.278453, 1095.368862)"><path style="stroke:none" d="M 11.40625 0 L 11.40625 -97.46875 L 45.03125 -97.46875 L 45.03125 -83.40625 L 45.40625 -83.40625 C 45.664062 -83.914062 46.078125 -84.550781 46.640625 -85.3125 C 47.210938 -86.070312 48.445312 -87.398438 50.34375 -89.296875 C 52.25 -91.203125 54.273438 -92.910156 56.421875 -94.421875 C 58.578125 -95.941406 61.363281 -97.300781 64.78125 -98.5 C 68.207031 -99.707031 71.691406 -100.3125 75.234375 -100.3125 C 78.910156 -100.3125 82.519531 -99.804688 86.0625 -98.796875 C 89.613281 -97.785156 92.210938 -96.773438 93.859375 -95.765625 L 96.515625 -94.234375 L 82.453125 -65.734375 C 78.273438 -69.285156 72.453125 -71.0625 64.984375 -71.0625 C 60.929688 -71.0625 57.445312 -70.171875 54.53125 -68.390625 C 51.613281 -66.617188 49.550781 -64.46875 48.34375 -61.9375 C 47.144531 -59.40625 46.289062 -57.25 45.78125 -55.46875 C 45.28125 -53.695312 45.03125 -52.304688 45.03125 -51.296875 L 45.03125 0 Z M 11.40625 0 "/></g></g><g style="fill:#000000;fill-opacity:1;"><g transform="translate(590.396471, 1095.368862)"><path style="stroke:none" d="M 11.40625 0 L 11.40625 -97.46875 L 45.03125 -97.46875 L 45.03125 -87.203125 L 45.40625 -87.203125 C 54.144531 -95.941406 63.457031 -100.3125 73.34375 -100.3125 C 78.15625 -100.3125 82.9375 -99.675781 87.6875 -98.40625 C 92.4375 -97.144531 96.992188 -95.1875 101.359375 -92.53125 C 105.734375 -89.875 109.28125 -86.101562 112 -81.21875 C 114.726562 -76.34375 116.09375 -70.675781 116.09375 -64.21875 L 116.09375 0 L 82.453125 0 L 82.453125 -55.09375 C 82.453125 -60.164062 80.835938 -64.597656 77.609375 -68.390625 C 74.378906 -72.191406 70.171875 -74.09375 64.984375 -74.09375 C 59.910156 -74.09375 55.316406 -72.128906 51.203125 -68.203125 C 47.085938 -64.273438 45.03125 -59.90625 45.03125 -55.09375 L 45.03125 0 Z M 11.40625 0 "/></g></g><g style="fill:#000000;fill-opacity:1;"><g transform="translate(725.483849, 1095.368862)"><path style="stroke:none" d="M 14.625 -151.8125 C 18.550781 -155.738281 23.238281 -157.703125 28.6875 -157.703125 C 34.132812 -157.703125 38.820312 -155.738281 42.75 -151.8125 C 46.675781 -147.882812 48.640625 -143.195312 48.640625 -137.75 C 48.640625 -132.300781 46.675781 -127.613281 42.75 -123.6875 C 38.820312 -119.757812 34.132812 -117.796875 28.6875 -117.796875 C 23.238281 -117.796875 18.550781 -119.757812 14.625 -123.6875 C 10.695312 -127.613281 8.734375 -132.300781 8.734375 -137.75 C 8.734375 -143.195312 10.695312 -147.882812 14.625 -151.8125 Z M 11.40625 -97.46875 L 11.40625 0 L 45.03125 0 L 45.03125 -97.46875 Z M 11.40625 -97.46875 "/></g></g><g style="fill:#000000;fill-opacity:1;"><g transform="translate(792.362612, 1095.368862)"><path style="stroke:none" d="M 17.09375 -97.46875 L 17.09375 -133.765625 L 50.734375 -133.765625 L 50.734375 -97.46875 L 71.25 -97.46875 L 71.25 -71.8125 L 50.734375 -71.8125 L 50.734375 -40.84375 C 50.734375 -31.851562 53.265625 -27.359375 58.328125 -27.359375 C 59.597656 -27.359375 60.925781 -27.609375 62.3125 -28.109375 C 63.707031 -28.617188 64.785156 -29.128906 65.546875 -29.640625 L 66.6875 -30.40625 L 75.046875 -3.234375 C 67.828125 0.816406 59.59375 2.84375 50.34375 2.84375 C 44.007812 2.84375 38.5625 1.738281 34 -0.46875 C 29.445312 -2.6875 26 -5.664062 23.65625 -9.40625 C 21.3125 -13.144531 19.628906 -17.070312 18.609375 -21.1875 C 17.597656 -25.300781 17.09375 -29.703125 17.09375 -34.390625 L 17.09375 -71.8125 L 3.046875 -71.8125 L 3.046875 -97.46875 Z M 17.09375 -97.46875 "/></g></g><g style="fill:#000000;fill-opacity:1;"><g transform="translate(876.911051, 1095.368862)"><path style="stroke:none" d="M 43.125 -97.46875 L 43.125 -51.109375 C 43.125 -41.484375 44.582031 -34.644531 47.5 -30.59375 C 50.414062 -26.539062 55.351562 -24.515625 62.3125 -24.515625 C 69.28125 -24.515625 74.222656 -26.539062 77.140625 -30.59375 C 80.054688 -34.644531 81.515625 -41.484375 81.515625 -51.109375 L 81.515625 -97.46875 L 115.140625 -97.46875 L 115.140625 -42.9375 C 115.140625 -26.726562 110.925781 -15.046875 102.5 -7.890625 C 94.082031 -0.734375 80.6875 2.84375 62.3125 2.84375 C 43.945312 2.84375 30.550781 -0.734375 22.125 -7.890625 C 13.707031 -15.046875 9.5 -26.726562 9.5 -42.9375 L 9.5 -97.46875 Z M 43.125 -97.46875 "/></g></g><g style="fill:#000000;fill-opacity:1;"><g transform="translate(1011.048427, 1095.368862)"><path style="stroke:none" d="M 11.40625 0 L 11.40625 -97.46875 L 45.03125 -97.46875 L 45.03125 -83.40625 L 45.40625 -83.40625 C 45.664062 -83.914062 46.078125 -84.550781 46.640625 -85.3125 C 47.210938 -86.070312 48.445312 -87.398438 50.34375 -89.296875 C 52.25 -91.203125 54.273438 -92.910156 56.421875 -94.421875 C 58.578125 -95.941406 61.363281 -97.300781 64.78125 -98.5 C 68.207031 -99.707031 71.691406 -100.3125 75.234375 -100.3125 C 78.910156 -100.3125 82.519531 -99.804688 86.0625 -98.796875 C 89.613281 -97.785156 92.210938 -96.773438 93.859375 -95.765625 L 96.515625 -94.234375 L 82.453125 -65.734375 C 78.273438 -69.285156 72.453125 -71.0625 64.984375 -71.0625 C 60.929688 -71.0625 57.445312 -70.171875 54.53125 -68.390625 C 51.613281 -66.617188 49.550781 -64.46875 48.34375 -61.9375 C 47.144531 -59.40625 46.289062 -57.25 45.78125 -55.46875 C 45.28125 -53.695312 45.03125 -52.304688 45.03125 -51.296875 L 45.03125 0 Z M 11.40625 0 "/></g></g><g style="fill:#000000;fill-opacity:1;"><g transform="translate(1114.026476, 1095.368862)"><path style="stroke:none" d="M 110.015625 -44.078125 L 39.328125 -44.078125 C 39.328125 -37.234375 41.539062 -32.164062 45.96875 -28.875 C 50.40625 -25.582031 55.222656 -23.9375 60.421875 -23.9375 C 65.867188 -23.9375 70.175781 -24.664062 73.34375 -26.125 C 76.507812 -27.582031 80.117188 -30.460938 84.171875 -34.765625 L 108.484375 -22.609375 C 98.359375 -5.640625 81.515625 2.84375 57.953125 2.84375 C 43.253906 2.84375 30.648438 -2.1875 20.140625 -12.25 C 9.628906 -22.320312 4.375 -34.453125 4.375 -48.640625 C 4.375 -62.828125 9.628906 -74.984375 20.140625 -85.109375 C 30.648438 -95.242188 43.253906 -100.3125 57.953125 -100.3125 C 73.398438 -100.3125 85.96875 -95.847656 95.65625 -86.921875 C 105.351562 -77.992188 110.203125 -65.234375 110.203125 -48.640625 C 110.203125 -46.359375 110.140625 -44.835938 110.015625 -44.078125 Z M 40.28125 -62.703125 L 77.328125 -62.703125 C 76.566406 -67.765625 74.570312 -71.65625 71.34375 -74.375 C 68.113281 -77.101562 63.96875 -78.46875 58.90625 -78.46875 C 53.332031 -78.46875 48.894531 -77.007812 45.59375 -74.09375 C 42.300781 -71.1875 40.53125 -67.390625 40.28125 -62.703125 Z M 40.28125 -62.703125 "/></g></g></g></svg>